<svg xmlns="http://www.w3.org/2000/svg" viewBox="0 0 600 720" role="img" aria-labelledby="title desc">
  <title id="title">Portrait of Jordan Lee</title>
  <desc id="desc">Stylized portrait illustration for the frontend developer.</desc>
  <defs>
    <linearGradient id="bg" x1="0" y1="0" x2="1" y2="1">
      <stop offset="0%" stop-color="#1e3d3f"/>
      <stop offset="52%" stop-color="#10262b"/>
      <stop offset="100%" stop-color="#071019"/>
    </linearGradient>
    <linearGradient id="accent" x1="0" y1="0" x2="1" y2="1">
      <stop offset="0%" stop-color="#67d7ff"/>
      <stop offset="100%" stop-color="#ff8b5e"/>
    </linearGradient>
  </defs>
  <rect width="600" height="720" rx="38" fill="url(#bg)"/>
  <circle cx="470" cy="130" r="112" fill="#67d7ff" opacity="0.12"/>
  <circle cx="140" cy="114" r="76" fill="#ff8b5e" opacity="0.13"/>
  <path d="M74 560c76-68 156-102 226-102s150 34 226 102" fill="none" stroke="url(#accent)" stroke-width="8" stroke-linecap="round" opacity="0.65"/>
  <circle cx="300" cy="272" r="88" fill="#f4ebe0"/>
  <path d="M176 560c18-92 88-150 124-150h0c36 0 106 58 124 150" fill="#f4ebe0"/>
  <path d="M214 235c18-41 49-64 86-64s68 23 86 64c-12 18-29 33-86 33s-74-15-86-33z" fill="#182632"/>
  <circle cx="271" cy="280" r="11" fill="#182632"/>
  <circle cx="329" cy="280" r="11" fill="#182632"/>
  <path d="M269 318c17 14 45 14 62 0" fill="none" stroke="#182632" stroke-width="8" stroke-linecap="round"/>
  <path d="M248 374h104" fill="none" stroke="#67d7ff" stroke-width="16" stroke-linecap="round" opacity="0.55"/>
  <text x="48" y="642" fill="#eef5fb" font-family="Trebuchet MS,Segoe UI,Tahoma,sans-serif" font-size="56" font-weight="700">JL</text>
  <text x="48" y="680" fill="#9db4c6" font-family="Trebuchet MS,Segoe UI,Tahoma,sans-serif" font-size="21" letter-spacing="0.18em">FRONTEND</text>
</svg>